<svg width="18" height="20" viewBox="0 0 18 20" fill="none" xmlns="http://www.w3.org/2000/svg">
<path d="M16.5003 8.49979H5.11533L10.0653 3.56479C10.3478 3.28233 10.5065 2.89924 10.5065 2.49979C10.5065 2.10034 10.3478 1.71725 10.0653 1.43479C9.78288 1.15233 9.39979 0.993652 9.00033 0.993652C8.60088 0.993652 8.21779 1.15233 7.93533 1.43479L0.435333 8.93479C0.298772 9.07745 0.191724 9.24566 0.120333 9.42979C-0.0296943 9.79498 -0.0296943 10.2046 0.120333 10.5698C0.191724 10.7539 0.298772 10.9221 0.435333 11.0648L7.93533 18.5648C8.07478 18.7054 8.24068 18.817 8.42347 18.8931C8.60626 18.9693 8.80232 19.0085 9.00033 19.0085C9.19835 19.0085 9.39441 18.9693 9.5772 18.8931C9.75999 18.817 9.92589 18.7054 10.0653 18.5648C10.2059 18.4253 10.3175 18.2594 10.3937 18.0767C10.4698 17.8939 10.509 17.6978 10.509 17.4998C10.509 17.3018 10.4698 17.1057 10.3937 16.9229C10.3175 16.7401 10.2059 16.5742 10.0653 16.4348L5.11533 11.4998H16.5003C16.8982 11.4998 17.2797 11.3418 17.561 11.0605C17.8423 10.7791 18.0003 10.3976 18.0003 9.99979C18.0003 9.60197 17.8423 9.22044 17.561 8.93913C17.2797 8.65783 16.8982 8.49979 16.5003 8.49979Z" fill="#6A6C75"/>
</svg>
