<svg width="36" height="36" viewBox="0 0 36 36" fill="none" xmlns="http://www.w3.org/2000/svg">
<path d="M29.8503 18.9898C29.6099 18.7161 29.4772 18.3642 29.4772 17.9998C29.4772 17.6355 29.6099 17.2836 29.8503 17.0098L31.7703 14.8498C31.9819 14.6138 32.1133 14.3169 32.1456 14.0016C32.178 13.6863 32.1096 13.3689 31.9503 13.0948L28.9503 7.90484C28.7927 7.63112 28.5527 7.41416 28.2645 7.28487C27.9763 7.15559 27.6546 7.12058 27.3453 7.18484L24.5253 7.75484C24.1665 7.82899 23.7929 7.76923 23.4752 7.58684C23.1574 7.40446 22.9173 7.11207 22.8003 6.76484L21.8853 4.01984C21.7847 3.72191 21.593 3.46314 21.3373 3.28011C21.0816 3.09707 20.7748 2.99903 20.4603 2.99984H14.4603C14.1332 2.98277 13.8095 3.07323 13.5387 3.25741C13.2678 3.4416 13.0647 3.70937 12.9603 4.01984L12.1203 6.76484C12.0033 7.11207 11.7633 7.40446 11.4455 7.58684C11.1277 7.76923 10.7542 7.82899 10.3953 7.75484L7.50033 7.18484C7.20716 7.14341 6.90828 7.18968 6.64135 7.3178C6.37442 7.44593 6.15138 7.65019 6.00033 7.90484L3.00033 13.0948C2.83707 13.3658 2.76367 13.6815 2.79061 13.9967C2.81755 14.3119 2.94346 14.6105 3.15033 14.8498L5.05533 17.0098C5.29581 17.2836 5.42843 17.6355 5.42843 17.9998C5.42843 18.3642 5.29581 18.7161 5.05533 18.9898L3.15033 21.1498C2.94346 21.3892 2.81755 21.6878 2.79061 22.003C2.76367 22.3182 2.83707 22.6339 3.00033 22.9048L6.00033 28.0948C6.15798 28.3686 6.39801 28.5855 6.68621 28.7148C6.97441 28.8441 7.29607 28.8791 7.60533 28.8148L10.4253 28.2448C10.7842 28.1707 11.1577 28.2305 11.4755 28.4128C11.7933 28.5952 12.0333 28.8876 12.1503 29.2348L13.0653 31.9798C13.1697 32.2903 13.3728 32.5581 13.6437 32.7423C13.9145 32.9265 14.2382 33.0169 14.5653 32.9998H20.5653C20.8798 33.0007 21.1866 32.9026 21.4423 32.7196C21.698 32.5365 21.8897 32.2778 21.9903 31.9798L22.9053 29.2348C23.0223 28.8876 23.2624 28.5952 23.5802 28.4128C23.8979 28.2305 24.2715 28.1707 24.6303 28.2448L27.4503 28.8148C27.7596 28.8791 28.0813 28.8441 28.3695 28.7148C28.6577 28.5855 28.8977 28.3686 29.0553 28.0948L32.0553 22.9048C32.2146 22.6308 32.283 22.3134 32.2506 21.9981C32.2183 21.6828 32.0869 21.3858 31.8753 21.1498L29.8503 18.9898ZM27.6153 20.9998L28.8153 22.3498L26.8953 25.6798L25.1253 25.3198C24.045 25.099 22.9212 25.2825 21.9672 25.8355C21.0133 26.3886 20.2955 27.2726 19.9503 28.3198L19.3803 29.9998H15.5403L15.0003 28.2898C14.6551 27.2426 13.9374 26.3586 12.9834 25.8055C12.0295 25.2525 10.9057 25.069 9.82533 25.2898L8.05533 25.6498L6.10533 22.3348L7.30533 20.9848C8.04326 20.1598 8.45123 19.0917 8.45123 17.9848C8.45123 16.8779 8.04326 15.8099 7.30533 14.9848L6.10533 13.6348L8.02533 10.3348L9.79533 10.6948C10.8757 10.9157 11.9995 10.7322 12.9534 10.1791C13.9074 9.62612 14.6251 8.74208 14.9703 7.69484L15.5403 5.99984H19.3803L19.9503 7.70984C20.2955 8.75708 21.0133 9.64112 21.9672 10.1941C22.9212 10.7472 24.045 10.9307 25.1253 10.7098L26.8953 10.3498L28.8153 13.6798L27.6153 15.0298C26.8857 15.853 26.4828 16.9149 26.4828 18.0148C26.4828 19.1148 26.8857 20.1767 27.6153 20.9998ZM17.4603 11.9998C16.2736 11.9998 15.1136 12.3517 14.1269 13.011C13.1402 13.6703 12.3712 14.6074 11.9171 15.7037C11.4629 16.8001 11.3441 18.0065 11.5756 19.1704C11.8071 20.3343 12.3786 21.4034 13.2177 22.2425C14.0568 23.0816 15.1259 23.653 16.2898 23.8846C17.4537 24.1161 18.6601 23.9972 19.7564 23.5431C20.8528 23.089 21.7899 22.32 22.4491 21.3333C23.1084 20.3466 23.4603 19.1865 23.4603 17.9998C23.4603 16.4085 22.8282 14.8824 21.703 13.7572C20.5778 12.632 19.0516 11.9998 17.4603 11.9998ZM17.4603 20.9998C16.867 20.9998 16.287 20.8239 15.7936 20.4943C15.3003 20.1646 14.9158 19.6961 14.6887 19.1479C14.4616 18.5997 14.4022 17.9965 14.518 17.4146C14.6337 16.8326 14.9195 16.2981 15.339 15.8785C15.7586 15.459 16.2931 15.1732 16.8751 15.0575C17.457 14.9417 18.0602 15.0011 18.6084 15.2282C19.1566 15.4553 19.6251 15.8398 19.9547 16.3331C20.2844 16.8265 20.4603 17.4065 20.4603 17.9998C20.4603 18.7955 20.1443 19.5586 19.5817 20.1212C19.019 20.6838 18.256 20.9998 17.4603 20.9998Z" fill="#393B47"/>
</svg>
