<svg width="29" height="29" viewBox="0 0 29 29" fill="none" xmlns="http://www.w3.org/2000/svg">
<path d="M3.625 19.9375C3.12958 19.9375 2.71875 19.5267 2.71875 19.0312V9.96875C2.71875 9.47333 3.12958 9.0625 3.625 9.0625C4.12042 9.0625 4.53125 9.47333 4.53125 9.96875V19.0312C4.53125 19.5267 4.12042 19.9375 3.625 19.9375Z" fill="#202330"/>
<path opacity="0.4" d="M9.0625 22.9584C8.56708 22.9584 8.15625 22.5476 8.15625 22.0522V6.948C8.15625 6.45258 8.56708 6.04175 9.0625 6.04175C9.55792 6.04175 9.96875 6.45258 9.96875 6.948V22.0522C9.96875 22.5476 9.55792 22.9584 9.0625 22.9584Z" fill="#202330"/>
<path d="M14.5 25.9791C14.0046 25.9791 13.5938 25.5683 13.5938 25.0728V3.927C13.5938 3.43159 14.0046 3.02075 14.5 3.02075C14.9954 3.02075 15.4062 3.43159 15.4062 3.927V25.0728C15.4062 25.5683 14.9954 25.9791 14.5 25.9791Z" fill="#202330"/>
<path opacity="0.4" d="M19.9375 22.9584C19.4421 22.9584 19.0312 22.5476 19.0312 22.0522V6.948C19.0312 6.45258 19.4421 6.04175 19.9375 6.04175C20.4329 6.04175 20.8438 6.45258 20.8438 6.948V22.0522C20.8438 22.5476 20.4329 22.9584 19.9375 22.9584Z" fill="#202330"/>
<path d="M25.375 19.9375C24.8796 19.9375 24.4688 19.5267 24.4688 19.0312V9.96875C24.4688 9.47333 24.8796 9.0625 25.375 9.0625C25.8704 9.0625 26.2812 9.47333 26.2812 9.96875V19.0312C26.2812 19.5267 25.8704 19.9375 25.375 19.9375Z" fill="#202330"/>
</svg>
