<svg width="24" height="24" viewBox="0 0 24 24" fill="none" xmlns="http://www.w3.org/2000/svg">
<path d="M15.4897 20.7599C15.2997 20.7599 15.1097 20.6899 14.9597 20.5399C14.6697 20.2499 14.6697 19.7699 14.9597 19.4799L19.9697 14.4699C20.2597 14.1799 20.7397 14.1799 21.0297 14.4699C21.3197 14.7599 21.3197 15.2399 21.0297 15.5299L16.0197 20.5399C15.8697 20.6799 15.6797 20.7599 15.4897 20.7599Z" fill="#128807"/>
<path d="M20.5 15.74H3.5C3.09 15.74 2.75 15.4 2.75 14.99C2.75 14.58 3.09 14.24 3.5 14.24H20.5C20.91 14.24 21.25 14.58 21.25 14.99C21.25 15.4 20.91 15.74 20.5 15.74Z" fill="#128807"/>
<path d="M3.50043 9.75994C3.31043 9.75994 3.12043 9.68994 2.97043 9.53994C2.68043 9.24994 2.68043 8.76994 2.97043 8.47994L7.98043 3.46994C8.27043 3.17994 8.75043 3.17994 9.04043 3.46994C9.33043 3.75994 9.33043 4.23994 9.04043 4.52994L4.03043 9.53994C3.89043 9.67994 3.69043 9.75994 3.50043 9.75994Z" fill="#128807"/>
<path d="M20.5 9.76001H3.5C3.09 9.76001 2.75 9.42001 2.75 9.01001C2.75 8.60001 3.09 8.26001 3.5 8.26001H20.5C20.91 8.26001 21.25 8.60001 21.25 9.01001C21.25 9.42001 20.91 9.76001 20.5 9.76001Z" fill="#128807"/>
</svg>
