<svg width="101" height="100" viewBox="0 0 101 100" fill="none" xmlns="http://www.w3.org/2000/svg">
<path d="M64.4689 71.3809C65.6016 80.5943 58.0228 88.1116 48.7766 86.9155C42.9305 86.1289 38.0555 81.4751 37.0805 75.627C35.4459 66.0039 43.7151 57.7655 53.3382 59.5578C59.1555 60.627 63.7459 65.5328 64.4689 71.3809Z" fill="#E24740"/>
<path d="M80.2548 50.8173C82.7702 54.0557 82.5183 57.8923 79.6241 60.125C76.7952 62.325 73.1471 61.6961 70.601 58.4903C64.2491 50.4077 55.6952 47.0423 44.8779 49.1192C39.2183 50.1884 34.501 53.7403 30.9798 58.3C29.1875 60.6269 26.9856 61.9153 24.0298 61.1942C19.5952 60.125 17.9914 55.0615 20.8856 51.1615C25.6644 44.748 31.8914 40.2192 39.5318 37.923C40.0664 37.7673 40.5702 37.6403 41.0721 37.5153C46.7644 36.1 52.7394 35.9115 58.4318 37.1384C67.4875 39.0865 74.5625 43.5846 80.2548 50.8173Z" fill="#E24740"/>
<path d="M94.0277 42.3576C92.4566 43.3961 90.6316 43.5518 88.6816 42.7038C87.645 42.2634 86.7008 41.4461 85.9162 40.6268C73.1181 27.3903 57.0508 22.4845 37.8681 26.823C29.095 28.8038 21.6739 34.1191 15.4777 40.6595C12.145 44.1807 7.55465 44.0557 5.22772 40.2826C5.22772 40.2499 5.19503 40.2499 5.19503 40.2499C4.03157 38.3326 4.09503 35.8172 5.25849 33.9307C7.49118 30.3153 10.8873 27.798 14.22 25.2826C38.7162 6.57299 73.4316 9.4653 94.5316 31.9172C94.72 32.1057 94.8777 32.2961 95.0354 32.4845C97.4239 35.5345 97.2354 40.1884 94.0277 42.3576Z" fill="#E24740"/>
<path d="M54.9978 86.3501C52.9905 87.0015 50.8626 87.1947 48.7708 86.9154C42.9228 86.1289 38.0478 81.4751 37.0728 75.627C35.4381 66.0039 43.7074 57.7654 53.3304 59.5578C53.8958 59.6539 54.4631 59.8097 55.0285 60.0001C51.8519 61.045 49.1586 63.2005 47.4429 66.0709C45.7272 68.9414 45.1042 72.3343 45.6881 75.627C46.5381 80.6578 50.2478 84.8097 54.9958 86.3501H54.9978ZM54.9343 36.5712C53.1641 36.761 51.4097 37.0765 49.6843 37.5154C49.1785 37.6404 48.6766 37.7654 48.142 37.9251C40.4997 40.2193 34.2747 44.7481 29.4939 51.1616C27.3574 54.0251 27.6708 57.5462 29.7785 59.6212C28.2054 61.1001 26.3497 61.7597 24.0228 61.1943C19.5901 60.1251 17.9843 55.0616 20.8785 51.1616C25.6593 44.7481 31.8843 40.2193 39.5266 37.9251C40.0612 37.7674 40.5651 37.6404 41.0651 37.5154C45.594 36.3709 50.2921 36.0498 54.9343 36.5712ZM54.9016 13.1154C43.2539 13.9634 32.1071 18.1928 22.8285 25.2847C19.4958 27.8001 16.0978 30.3154 13.867 33.9328C12.7035 35.8174 12.6401 38.3366 13.8035 40.2539C13.8035 40.2539 13.8343 40.2539 13.8343 40.2847C14.0862 40.6924 14.3689 41.0712 14.6843 41.3847C11.4458 44.1539 7.35737 43.7751 5.21891 40.2847C5.21891 40.2539 5.18814 40.2539 5.18814 40.2539C4.02468 38.3347 4.08622 35.8193 5.24968 33.9328C7.48237 30.3174 10.8785 27.8001 14.2112 25.2847C25.8353 16.3975 40.3088 12.0691 54.9035 13.1154H54.9016Z" fill="#ED7573"/>
<path d="M91.7488 87.0403H57.1142C53.4719 87.0403 51.1026 83.2096 52.7296 79.95L70.0315 45.3173C71.8372 41.7057 76.9911 41.7019 78.7988 45.3134L96.1296 79.948C97.7603 83.2057 95.3911 87.0403 91.7488 87.0403Z" fill="#FFDD50"/>
<path d="M61.062 79.9673C59.4274 83.2057 61.8178 87.0423 65.4658 87.0423H57.1005C53.4851 87.0423 51.0947 83.2057 52.7293 79.9654L70.0235 45.3134C71.7851 41.823 76.6274 41.698 78.5774 44.9365C78.5139 45.0615 78.4197 45.1865 78.3562 45.3134L61.062 79.9673Z" fill="#FFEA92"/>
<path d="M72.2347 80.9769C72.1575 80.9019 72.0965 80.8118 72.0555 80.7122C72.0145 80.6126 71.9943 80.5057 71.9962 80.3981V77.1635C71.9962 76.9135 72.077 76.7173 72.2347 76.5673C72.3917 76.4217 72.5994 76.3431 72.8135 76.3481H76.0135C76.2635 76.3481 76.4674 76.4269 76.627 76.5866C76.7036 76.6616 76.764 76.7515 76.8047 76.8506C76.8454 76.9498 76.8654 77.0563 76.8635 77.1635V80.3981C76.8654 80.5053 76.8454 80.6117 76.8047 80.7109C76.764 80.8101 76.7036 80.9 76.627 80.975C76.5461 81.0547 76.4498 81.117 76.344 81.158C76.2381 81.199 76.125 81.2179 76.0116 81.2135H72.8135C72.7063 81.2153 72.5999 81.1953 72.5007 81.1547C72.4015 81.114 72.3116 81.0535 72.2366 80.9769H72.2347ZM72.4404 74.3423C72.363 74.267 72.3019 74.1766 72.2609 74.0767C72.2199 73.9768 72.1998 73.8695 72.202 73.7616V58.2116C72.1964 58.1009 72.2149 57.9903 72.256 57.8874C72.2972 57.7845 72.3601 57.6917 72.4404 57.6154C72.5963 57.4689 72.8035 57.3894 73.0174 57.3943H75.8424C75.95 57.3924 76.0569 57.4126 76.1565 57.4536C76.256 57.4946 76.3461 57.5555 76.4212 57.6327C76.4984 57.7078 76.5593 57.7979 76.6004 57.8975C76.6414 57.997 76.6616 58.1039 76.6597 58.2116V73.7635C76.6616 73.8711 76.6414 73.978 76.6004 74.0776C76.5593 74.1771 76.4984 74.2672 76.4212 74.3423C76.346 74.4193 76.2559 74.4802 76.1563 74.5212C76.0568 74.5621 75.95 74.5824 75.8424 74.5808H73.0193C72.9116 74.5827 72.8047 74.5625 72.7052 74.5215C72.6056 74.4805 72.5155 74.4195 72.4404 74.3423Z" fill="#424E9B"/>
</svg>
